M48
; DRILL file {KiCad 9.0.3} date 2025-08-13T21:36:20+0700
; FORMAT={-:-/ absolute / metric / decimal}
; #@! TF.CreationDate,2025-08-13T21:36:20+07:00
; #@! TF.GenerationSoftware,Kicad,Pcbnew,9.0.3
; #@! TF.FileFunction,Plated,1,2,PTH
FMAT,2
METRIC
; #@! TA.AperFunction,Plated,PTH,ViaDrill
T1C0.300
; #@! TA.AperFunction,Plated,PTH,ViaDrill
T2C0.600
; #@! TA.AperFunction,Plated,PTH,ComponentDrill
T3C0.800
; #@! TA.AperFunction,Plated,PTH,ComponentDrill
T4C1.000
; #@! TA.AperFunction,Plated,PTH,ComponentDrill
T5C1.100
; #@! TA.AperFunction,Plated,PTH,ComponentDrill
T6C1.270
; #@! TA.AperFunction,Plated,PTH,ComponentDrill
T7C1.520
; #@! TA.AperFunction,Plated,PTH,ComponentDrill
T8C1.600
; #@! TA.AperFunction,Plated,PTH,ComponentDrill
T9C1.800
; #@! TA.AperFunction,Plated,PTH,ComponentDrill
T10C4.000
%
G90
G05
T1
X90.7Y-86.7
X104.7Y-62.8
X127.1Y-76.5
X129.7Y-74.9
X131.6Y-76.7
X131.7Y-74.1
X135.0Y-82.5
X137.7Y-52.4
X138.3Y-68.9
X138.5Y-80.8
X138.5Y-80.8
X139.9Y-56.7
X141.4Y-70.8
X141.8Y-52.2
X141.8Y-52.2
X141.8Y-52.2
X142.2Y-70.3
X142.3Y-84.3
X142.7Y-79.3
X142.7Y-80.1
X142.812Y-69.7
X142.812Y-69.7
X143.2Y-81.6
X143.4Y-69.1
X144.0Y-74.2
X144.312Y-72.4
X144.312Y-72.4
X144.912Y-71.8
X144.912Y-71.8
X145.8Y-52.2
X145.8Y-52.2
X149.8Y-52.2
X150.4Y-80.3
X150.9Y-81.0
X151.3Y-81.7
X152.6Y-81.6
X153.1Y-78.8
X154.0Y-52.2
X154.1Y-93.1
X154.8Y-61.5
X155.1Y-60.6
X158.5Y-71.2
X160.9Y-68.0
X161.2Y-58.6
X163.9Y-70.6
X163.9Y-72.3
X170.5Y-59.1
X176.6Y-56.2
X180.7Y-56.5
T2
X77.7Y-85.0
X87.3Y-84.4
X89.2Y-89.1
X90.8Y-106.7
X92.4Y-57.4
X94.1Y-60.0
X95.1Y-82.3
X99.4Y-107.8
X99.5Y-75.4
X103.5Y-82.4
X111.5Y-82.4
X117.5Y-66.7
X119.5Y-82.3
X129.8Y-80.5
X129.8Y-80.5
X130.0Y-94.3
X133.8Y-71.0
X135.8Y-42.9
X135.9Y-42.9
X139.737Y-74.938
X139.9Y-42.9
X139.9Y-42.9
X143.9Y-42.9
X146.1Y-58.9
X147.8Y-65.0
X148.0Y-43.0
X148.0Y-43.0
X149.7Y-65.1
X151.9Y-58.9
X152.1Y-82.876
X152.2Y-43.0
X152.2Y-43.0
X155.108Y-52.508
X156.1Y-57.6
X156.4Y-43.0
X156.4Y-43.0
X156.4Y-43.0
X159.7Y-71.7
X160.1Y-66.4
X160.3Y-52.5
X160.6Y-43.0
X164.4Y-52.5
X164.4Y-52.5
X164.4Y-52.5
X164.6Y-43.0
X164.6Y-43.0
X168.0Y-73.8
X168.3Y-81.9
X168.5Y-52.5
X168.5Y-70.6
X168.6Y-43.0
X168.6Y-43.0
X172.6Y-43.0
X172.6Y-52.5
X176.8Y-43.0
X176.8Y-43.0
X176.8Y-52.5
X180.8Y-43.0
X180.8Y-43.0
X180.85Y-52.35
X181.6Y-62.4
X184.8Y-53.6
T3
X76.597Y-51.4
X76.597Y-61.5
X80.197Y-88.5
X80.397Y-51.4
X80.397Y-61.5
X83.997Y-88.5
X86.003Y-61.5
X89.803Y-61.5
X90.005Y-94.46
X90.005Y-97.0
X90.005Y-99.54
X110.7Y-45.195
X110.7Y-52.815
X113.24Y-45.195
X113.24Y-52.815
X116.735Y-45.195
X116.735Y-52.815
X119.275Y-45.195
X119.275Y-52.815
X122.735Y-45.195
X122.735Y-52.815
X125.275Y-45.195
X125.275Y-52.815
X128.735Y-45.195
X128.735Y-52.815
X131.275Y-45.195
X131.275Y-52.815
X172.4Y-69.862
X172.4Y-74.742
T4
X103.92Y-73.5
X103.92Y-76.04
X106.46Y-73.5
X106.46Y-76.04
X109.0Y-73.5
X109.0Y-76.04
X111.54Y-73.5
X111.54Y-76.04
X112.0Y-39.0
X114.08Y-73.5
X114.08Y-76.04
X114.54Y-39.0
X116.62Y-73.5
X116.62Y-76.04
X117.08Y-39.0
X119.16Y-73.5
X119.16Y-76.04
X119.62Y-39.0
X121.7Y-73.5
X121.7Y-76.04
X122.16Y-39.0
X124.7Y-39.0
X127.24Y-39.0
X128.5Y-63.36
X128.5Y-65.9
X128.5Y-68.44
X129.78Y-39.0
X130.935Y-83.58
X130.935Y-86.12
X130.935Y-88.66
X130.935Y-91.2
X131.04Y-63.36
X131.04Y-65.9
X131.04Y-68.44
X137.3Y-39.0
X139.84Y-39.0
X142.38Y-39.0
X144.92Y-39.0
X147.46Y-39.0
X150.0Y-39.0
X152.54Y-39.0
X155.08Y-39.0
X159.1Y-92.3
X161.11Y-39.0
X163.65Y-39.0
X166.19Y-39.0
X166.7Y-92.3
X168.73Y-39.0
X171.27Y-39.0
X173.81Y-39.0
X176.35Y-39.0
X178.89Y-39.0
X184.9Y-60.4
X184.9Y-62.94
X184.9Y-65.48
X184.9Y-68.02
T5
X95.5Y-92.0
X95.5Y-103.5
X95.5Y-110.5
X100.2Y-92.0
X103.5Y-92.0
X103.5Y-103.5
X103.5Y-110.5
X108.2Y-92.0
X111.582Y-92.0
X111.582Y-103.5
X111.582Y-110.5
X116.282Y-92.0
X119.5Y-92.0
X119.5Y-103.5
X119.5Y-110.5
X124.2Y-92.0
T6
X96.516Y-68.5
X96.516Y-71.04
X96.516Y-73.58
T7
X75.42Y-41.5
X80.46Y-107.5
X80.5Y-41.5
X85.54Y-107.5
X130.62Y-107.5
X135.7Y-107.5
X140.78Y-107.5
X145.86Y-107.5
X150.94Y-107.5
X156.02Y-107.5
X161.1Y-107.5
X166.18Y-107.5
T8
X67.7Y-48.35
X67.7Y-53.45
X67.7Y-58.55
X67.7Y-63.65
X69.0Y-68.88
X69.0Y-84.12
X86.76Y-40.5
X102.0Y-40.5
T9
X68.92Y-95.5
X74.5Y-95.5
X97.21Y-51.5
X102.79Y-51.5
T10
X68.0Y-40.5
X68.0Y-108.5
X186.0Y-40.5
X186.0Y-108.5
M30
