%TF.GenerationSoftware,KiCad,Pcbnew,9.0.3*%
%TF.CreationDate,2025-08-13T21:25:55+07:00*%
%TF.ProjectId,Ex1,4578312e-6b69-4636-9164-5f7063625858,rev?*%
%TF.SameCoordinates,Original*%
%TF.FileFunction,Paste,Top*%
%TF.FilePolarity,Positive*%
%FSLAX46Y46*%
G04 Gerber Fmt 4.6, Leading zero omitted, Abs format (unit mm)*
G04 Created by KiCad (PCBNEW 9.0.3) date 2025-08-13 21:25:55*
%MOMM*%
%LPD*%
G01*
G04 APERTURE LIST*
G04 Aperture macros list*
%AMRoundRect*
0 Rectangle with rounded corners*
0 $1 Rounding radius*
0 $2 $3 $4 $5 $6 $7 $8 $9 X,Y pos of 4 corners*
0 Add a 4 corners polygon primitive as box body*
4,1,4,$2,$3,$4,$5,$6,$7,$8,$9,$2,$3,0*
0 Add four circle primitives for the rounded corners*
1,1,$1+$1,$2,$3*
1,1,$1+$1,$4,$5*
1,1,$1+$1,$6,$7*
1,1,$1+$1,$8,$9*
0 Add four rect primitives between the rounded corners*
20,1,$1+$1,$2,$3,$4,$5,0*
20,1,$1+$1,$4,$5,$6,$7,0*
20,1,$1+$1,$6,$7,$8,$9,0*
20,1,$1+$1,$8,$9,$2,$3,0*%
G04 Aperture macros list end*
%ADD10RoundRect,0.250000X-0.350000X-0.450000X0.350000X-0.450000X0.350000X0.450000X-0.350000X0.450000X0*%
%ADD11RoundRect,0.250000X0.450000X-0.350000X0.450000X0.350000X-0.450000X0.350000X-0.450000X-0.350000X0*%
%ADD12RoundRect,0.237500X0.237500X-0.250000X0.237500X0.250000X-0.237500X0.250000X-0.237500X-0.250000X0*%
%ADD13RoundRect,0.150000X0.150000X-0.587500X0.150000X0.587500X-0.150000X0.587500X-0.150000X-0.587500X0*%
%ADD14RoundRect,0.250000X0.262500X0.450000X-0.262500X0.450000X-0.262500X-0.450000X0.262500X-0.450000X0*%
%ADD15RoundRect,0.250000X-0.337500X-0.475000X0.337500X-0.475000X0.337500X0.475000X-0.337500X0.475000X0*%
%ADD16RoundRect,0.250000X0.450000X-0.325000X0.450000X0.325000X-0.450000X0.325000X-0.450000X-0.325000X0*%
%ADD17RoundRect,0.237500X0.300000X0.237500X-0.300000X0.237500X-0.300000X-0.237500X0.300000X-0.237500X0*%
%ADD18RoundRect,0.250000X-0.450000X0.325000X-0.450000X-0.325000X0.450000X-0.325000X0.450000X0.325000X0*%
%ADD19RoundRect,0.162500X0.825000X0.162500X-0.825000X0.162500X-0.825000X-0.162500X0.825000X-0.162500X0*%
%ADD20RoundRect,0.250000X-0.450000X0.262500X-0.450000X-0.262500X0.450000X-0.262500X0.450000X0.262500X0*%
%ADD21RoundRect,0.250000X0.350000X0.450000X-0.350000X0.450000X-0.350000X-0.450000X0.350000X-0.450000X0*%
%ADD22RoundRect,0.250000X-0.450000X0.350000X-0.450000X-0.350000X0.450000X-0.350000X0.450000X0.350000X0*%
%ADD23RoundRect,0.250000X0.475000X-0.337500X0.475000X0.337500X-0.475000X0.337500X-0.475000X-0.337500X0*%
%ADD24RoundRect,0.250000X0.337500X0.475000X-0.337500X0.475000X-0.337500X-0.475000X0.337500X-0.475000X0*%
%ADD25RoundRect,0.250000X1.000000X0.650000X-1.000000X0.650000X-1.000000X-0.650000X1.000000X-0.650000X0*%
%ADD26RoundRect,0.237500X0.250000X0.237500X-0.250000X0.237500X-0.250000X-0.237500X0.250000X-0.237500X0*%
%ADD27RoundRect,0.250000X-0.262500X-0.450000X0.262500X-0.450000X0.262500X0.450000X-0.262500X0.450000X0*%
%ADD28RoundRect,0.250000X-0.475000X0.337500X-0.475000X-0.337500X0.475000X-0.337500X0.475000X0.337500X0*%
%ADD29RoundRect,0.237500X-0.250000X-0.237500X0.250000X-0.237500X0.250000X0.237500X-0.250000X0.237500X0*%
%ADD30RoundRect,0.250000X0.325000X0.450000X-0.325000X0.450000X-0.325000X-0.450000X0.325000X-0.450000X0*%
%ADD31RoundRect,0.250000X-0.325000X-0.450000X0.325000X-0.450000X0.325000X0.450000X-0.325000X0.450000X0*%
%ADD32RoundRect,0.150000X-0.150000X0.587500X-0.150000X-0.587500X0.150000X-0.587500X0.150000X0.587500X0*%
%ADD33RoundRect,0.075000X0.662500X0.075000X-0.662500X0.075000X-0.662500X-0.075000X0.662500X-0.075000X0*%
%ADD34RoundRect,0.075000X0.075000X0.662500X-0.075000X0.662500X-0.075000X-0.662500X0.075000X-0.662500X0*%
%ADD35RoundRect,0.250000X2.375000X-2.025000X2.375000X2.025000X-2.375000X2.025000X-2.375000X-2.025000X0*%
%ADD36RoundRect,0.250000X0.300000X-2.050000X0.300000X2.050000X-0.300000X2.050000X-0.300000X-2.050000X0*%
%ADD37RoundRect,0.250000X0.800000X0.650000X-0.800000X0.650000X-0.800000X-0.650000X0.800000X-0.650000X0*%
%ADD38RoundRect,0.150000X-0.587500X-0.150000X0.587500X-0.150000X0.587500X0.150000X-0.587500X0.150000X0*%
%ADD39RoundRect,0.250000X-1.000000X-0.650000X1.000000X-0.650000X1.000000X0.650000X-1.000000X0.650000X0*%
%ADD40RoundRect,0.237500X-0.300000X-0.237500X0.300000X-0.237500X0.300000X0.237500X-0.300000X0.237500X0*%
%ADD41RoundRect,0.250000X-0.830000X-0.310000X0.830000X-0.310000X0.830000X0.310000X-0.830000X0.310000X0*%
G04 APERTURE END LIST*
D10*
%TO.C,R28*%
X107500000Y-81000000D03*
X109500000Y-81000000D03*
%TD*%
D11*
%TO.C,R22*%
X128000000Y-57000000D03*
X128000000Y-55000000D03*
%TD*%
D10*
%TO.C,R32*%
X111500000Y-81000000D03*
X113500000Y-81000000D03*
%TD*%
D12*
%TO.C,R57*%
X170300000Y-46412500D03*
X170300000Y-44587500D03*
%TD*%
D10*
%TO.C,R39*%
X177800000Y-60410000D03*
X179800000Y-60410000D03*
%TD*%
D13*
%TO.C,Q8*%
X143900000Y-50600000D03*
X145800000Y-50600000D03*
X144850000Y-48725000D03*
%TD*%
D14*
%TO.C,R1*%
X75800000Y-86000000D03*
X73975000Y-86000000D03*
%TD*%
D11*
%TO.C,R17*%
X120000000Y-57000000D03*
X120000000Y-55000000D03*
%TD*%
D15*
%TO.C,C6*%
X74962500Y-71500000D03*
X77037500Y-71500000D03*
%TD*%
D13*
%TO.C,Q13*%
X164400000Y-50600000D03*
X166300000Y-50600000D03*
X165350000Y-48725000D03*
%TD*%
D12*
%TO.C,R62*%
X176800000Y-46412500D03*
X176800000Y-44587500D03*
%TD*%
D16*
%TO.C,D14*%
X106900000Y-85625000D03*
X106900000Y-83575000D03*
%TD*%
D17*
%TO.C,C9*%
X179662500Y-62410000D03*
X177937500Y-62410000D03*
%TD*%
D12*
%TO.C,R6*%
X135750000Y-46412500D03*
X135750000Y-44587500D03*
%TD*%
D18*
%TO.C,D5*%
X95000000Y-62062500D03*
X95000000Y-64112500D03*
%TD*%
D19*
%TO.C,U2*%
X91537500Y-50905000D03*
X91537500Y-49635000D03*
X91537500Y-48365000D03*
X91537500Y-47095000D03*
X86462500Y-47095000D03*
X86462500Y-48365000D03*
X86462500Y-49635000D03*
X86462500Y-50905000D03*
%TD*%
D13*
%TO.C,Q14*%
X168500000Y-50600000D03*
X170400000Y-50600000D03*
X169450000Y-48725000D03*
%TD*%
D20*
%TO.C,R5*%
X97500000Y-62175000D03*
X97500000Y-64000000D03*
%TD*%
D12*
%TO.C,R58*%
X168600000Y-46412500D03*
X168600000Y-44587500D03*
%TD*%
D10*
%TO.C,R34*%
X123500000Y-81000000D03*
X125500000Y-81000000D03*
%TD*%
D18*
%TO.C,D9*%
X118000000Y-54975000D03*
X118000000Y-57025000D03*
%TD*%
D10*
%TO.C,R31*%
X115500000Y-81000000D03*
X117500000Y-81000000D03*
%TD*%
D21*
%TO.C,R10*%
X140300000Y-62800000D03*
X138300000Y-62800000D03*
%TD*%
D17*
%TO.C,C11*%
X167062500Y-66900000D03*
X165337500Y-66900000D03*
%TD*%
D15*
%TO.C,C4*%
X81425000Y-101500000D03*
X83500000Y-101500000D03*
%TD*%
D12*
%TO.C,R48*%
X147950000Y-46412500D03*
X147950000Y-44587500D03*
%TD*%
D22*
%TO.C,R25*%
X100900000Y-83500000D03*
X100900000Y-85500000D03*
%TD*%
D12*
%TO.C,R52*%
X156400000Y-46412500D03*
X156400000Y-44587500D03*
%TD*%
D11*
%TO.C,R15*%
X114000000Y-56975000D03*
X114000000Y-54975000D03*
%TD*%
D12*
%TO.C,R49*%
X153900000Y-46412500D03*
X153900000Y-44587500D03*
%TD*%
%TO.C,R63*%
X182500000Y-46412500D03*
X182500000Y-44587500D03*
%TD*%
D23*
%TO.C,0.1uF3*%
X134985000Y-86437500D03*
X134985000Y-84362500D03*
%TD*%
D12*
%TO.C,R53*%
X162300000Y-46412500D03*
X162300000Y-44587500D03*
%TD*%
D22*
%TO.C,R38*%
X148100000Y-85000000D03*
X148100000Y-87000000D03*
%TD*%
D24*
%TO.C,C8*%
X90037500Y-55500000D03*
X87962500Y-55500000D03*
%TD*%
D25*
%TO.C,D15*%
X108000000Y-88500000D03*
X104000000Y-88500000D03*
%TD*%
D26*
%TO.C,R8*%
X136112500Y-68900000D03*
X134287500Y-68900000D03*
%TD*%
D12*
%TO.C,R42*%
X137500000Y-46400000D03*
X137500000Y-44575000D03*
%TD*%
%TO.C,R44*%
X139850000Y-46412500D03*
X139850000Y-44587500D03*
%TD*%
D25*
%TO.C,D12*%
X99917500Y-88500000D03*
X95917500Y-88500000D03*
%TD*%
D27*
%TO.C,R3*%
X81550000Y-99000000D03*
X83375000Y-99000000D03*
%TD*%
D28*
%TO.C,0.1uF5*%
X159200000Y-67762500D03*
X159200000Y-69837500D03*
%TD*%
D13*
%TO.C,Q15*%
X172600000Y-50600000D03*
X174500000Y-50600000D03*
X173550000Y-48725000D03*
%TD*%
D12*
%TO.C,R51*%
X158100000Y-46412500D03*
X158100000Y-44587500D03*
%TD*%
D10*
%TO.C,R26*%
X95417500Y-81000000D03*
X97417500Y-81000000D03*
%TD*%
D29*
%TO.C,R7*%
X134287500Y-67100000D03*
X136112500Y-67100000D03*
%TD*%
D21*
%TO.C,R2*%
X83462500Y-94000000D03*
X81462500Y-94000000D03*
%TD*%
D30*
%TO.C,D6*%
X136225000Y-65000000D03*
X134175000Y-65000000D03*
%TD*%
D13*
%TO.C,Q10*%
X152050000Y-50600000D03*
X153950000Y-50600000D03*
X153000000Y-48725000D03*
%TD*%
D31*
%TO.C,D3*%
X81462500Y-96500000D03*
X83512500Y-96500000D03*
%TD*%
D25*
%TO.C,D19*%
X124000000Y-88500000D03*
X120000000Y-88500000D03*
%TD*%
D12*
%TO.C,R12*%
X162500000Y-72362500D03*
X162500000Y-70537500D03*
%TD*%
D11*
%TO.C,R14*%
X110000000Y-56975000D03*
X110000000Y-54975000D03*
%TD*%
D25*
%TO.C,D17*%
X116000000Y-88500000D03*
X112000000Y-88500000D03*
%TD*%
D32*
%TO.C,Q4*%
X120650000Y-83562500D03*
X118750000Y-83562500D03*
X119700000Y-85437500D03*
%TD*%
D22*
%TO.C,R36*%
X124700000Y-83500000D03*
X124700000Y-85500000D03*
%TD*%
%TO.C,R33*%
X116700000Y-83500000D03*
X116700000Y-85500000D03*
%TD*%
D12*
%TO.C,R61*%
X178400000Y-46412500D03*
X178400000Y-44587500D03*
%TD*%
D18*
%TO.C,D10*%
X124000000Y-54950000D03*
X124000000Y-57000000D03*
%TD*%
D11*
%TO.C,R37*%
X145800000Y-87000000D03*
X145800000Y-85000000D03*
%TD*%
D33*
%TO.C,U5*%
X155062500Y-74987500D03*
X155062500Y-74487500D03*
X155062500Y-73987500D03*
X155062500Y-73487500D03*
X155062500Y-72987500D03*
X155062500Y-72487500D03*
X155062500Y-71987500D03*
X155062500Y-71487500D03*
X155062500Y-70987500D03*
X155062500Y-70487500D03*
X155062500Y-69987500D03*
X155062500Y-69487500D03*
D34*
X153650000Y-68075000D03*
X153150000Y-68075000D03*
X152650000Y-68075000D03*
X152150000Y-68075000D03*
X151650000Y-68075000D03*
X151150000Y-68075000D03*
X150650000Y-68075000D03*
X150150000Y-68075000D03*
X149650000Y-68075000D03*
X149150000Y-68075000D03*
X148650000Y-68075000D03*
X148150000Y-68075000D03*
D33*
X146737500Y-69487500D03*
X146737500Y-69987500D03*
X146737500Y-70487500D03*
X146737500Y-70987500D03*
X146737500Y-71487500D03*
X146737500Y-71987500D03*
X146737500Y-72487500D03*
X146737500Y-72987500D03*
X146737500Y-73487500D03*
X146737500Y-73987500D03*
X146737500Y-74487500D03*
X146737500Y-74987500D03*
D34*
X148150000Y-76400000D03*
X148650000Y-76400000D03*
X149150000Y-76400000D03*
X149650000Y-76400000D03*
X150150000Y-76400000D03*
X150650000Y-76400000D03*
X151150000Y-76400000D03*
X151650000Y-76400000D03*
X152150000Y-76400000D03*
X152650000Y-76400000D03*
X153150000Y-76400000D03*
X153650000Y-76400000D03*
%TD*%
D13*
%TO.C,Q6*%
X139850000Y-50600000D03*
X141750000Y-50600000D03*
X140800000Y-48725000D03*
%TD*%
D27*
%TO.C,R4*%
X88087500Y-53000000D03*
X89912500Y-53000000D03*
%TD*%
D10*
%TO.C,R24*%
X129000000Y-42500000D03*
X131000000Y-42500000D03*
%TD*%
D13*
%TO.C,Q16*%
X176800000Y-50600000D03*
X178700000Y-50600000D03*
X177750000Y-48725000D03*
%TD*%
D18*
%TO.C,D8*%
X112000000Y-54950000D03*
X112000000Y-57000000D03*
%TD*%
D13*
%TO.C,Q12*%
X160300000Y-50600000D03*
X162200000Y-50600000D03*
X161250000Y-48725000D03*
%TD*%
D12*
%TO.C,R55*%
X166200000Y-46412500D03*
X166200000Y-44587500D03*
%TD*%
%TO.C,R56*%
X164550000Y-46412500D03*
X164550000Y-44587500D03*
%TD*%
D35*
%TO.C,U1*%
X82825000Y-73850000D03*
X88375000Y-73850000D03*
X82825000Y-69000000D03*
X88375000Y-69000000D03*
D36*
X82200000Y-80575000D03*
X83900000Y-80575000D03*
X85600000Y-80575000D03*
X87300000Y-80575000D03*
X89000000Y-80575000D03*
%TD*%
D12*
%TO.C,R60*%
X172650000Y-46412500D03*
X172650000Y-44587500D03*
%TD*%
D17*
%TO.C,C14*%
X139047500Y-84300000D03*
X137322500Y-84300000D03*
%TD*%
D30*
%TO.C,D7*%
X136225000Y-62800000D03*
X134175000Y-62800000D03*
%TD*%
D12*
%TO.C,R54*%
X160600000Y-46412500D03*
X160600000Y-44587500D03*
%TD*%
D17*
%TO.C,C13*%
X167000000Y-70600000D03*
X165275000Y-70600000D03*
%TD*%
%TO.C,C15*%
X179662500Y-66910000D03*
X177937500Y-66910000D03*
%TD*%
D10*
%TO.C,R18*%
X117000000Y-42500000D03*
X119000000Y-42500000D03*
%TD*%
D13*
%TO.C,Q11*%
X156200000Y-50600000D03*
X158100000Y-50600000D03*
X157150000Y-48725000D03*
%TD*%
D16*
%TO.C,D18*%
X122700000Y-85525000D03*
X122700000Y-83475000D03*
%TD*%
D37*
%TO.C,Y2*%
X165850000Y-75112500D03*
X162950000Y-75112500D03*
X162950000Y-77412500D03*
X165850000Y-77412500D03*
%TD*%
D12*
%TO.C,R47*%
X149700000Y-46412500D03*
X149700000Y-44587500D03*
%TD*%
D10*
%TO.C,R29*%
X103500000Y-81000000D03*
X105500000Y-81000000D03*
%TD*%
D38*
%TO.C,Q5*%
X151012500Y-85012500D03*
X151012500Y-86912500D03*
X152887500Y-85962500D03*
%TD*%
D13*
%TO.C,Q7*%
X135700000Y-50600000D03*
X137600000Y-50600000D03*
X136650000Y-48725000D03*
%TD*%
D11*
%TO.C,R16*%
X116000000Y-57000000D03*
X116000000Y-55000000D03*
%TD*%
D29*
%TO.C,R41*%
X137272500Y-86400000D03*
X139097500Y-86400000D03*
%TD*%
D32*
%TO.C,Q2*%
X105100000Y-83700000D03*
X103200000Y-83700000D03*
X104150000Y-85575000D03*
%TD*%
D11*
%TO.C,R19*%
X122000000Y-57000000D03*
X122000000Y-55000000D03*
%TD*%
D39*
%TO.C,D20*%
X146700000Y-90600000D03*
X150700000Y-90600000D03*
%TD*%
D12*
%TO.C,R45*%
X145600000Y-46400000D03*
X145600000Y-44575000D03*
%TD*%
D40*
%TO.C,C10*%
X165312500Y-68700000D03*
X167037500Y-68700000D03*
%TD*%
%TO.C,C12*%
X165275000Y-72300000D03*
X167000000Y-72300000D03*
%TD*%
D24*
%TO.C,0.1uF4*%
X155237500Y-80300000D03*
X153162500Y-80300000D03*
%TD*%
D15*
%TO.C,C2*%
X74962500Y-68500000D03*
X77037500Y-68500000D03*
%TD*%
D32*
%TO.C,Q1*%
X97000000Y-83600000D03*
X95100000Y-83600000D03*
X96050000Y-85475000D03*
%TD*%
D10*
%TO.C,R13*%
X111000000Y-42500000D03*
X113000000Y-42500000D03*
%TD*%
D12*
%TO.C,R11*%
X162500000Y-68787500D03*
X162500000Y-66962500D03*
%TD*%
D13*
%TO.C,Q17*%
X180850000Y-50600000D03*
X182750000Y-50600000D03*
X181800000Y-48725000D03*
%TD*%
D12*
%TO.C,R50*%
X152200000Y-46412500D03*
X152200000Y-44587500D03*
%TD*%
D13*
%TO.C,Q9*%
X147900000Y-50600000D03*
X149800000Y-50600000D03*
X148850000Y-48725000D03*
%TD*%
D11*
%TO.C,R23*%
X132000000Y-57000000D03*
X132000000Y-55000000D03*
%TD*%
D10*
%TO.C,R65*%
X177800000Y-65010000D03*
X179800000Y-65010000D03*
%TD*%
D12*
%TO.C,R46*%
X143900000Y-46412500D03*
X143900000Y-44587500D03*
%TD*%
D11*
%TO.C,R20*%
X126000000Y-56975000D03*
X126000000Y-54975000D03*
%TD*%
D22*
%TO.C,R30*%
X108900000Y-83600000D03*
X108900000Y-85600000D03*
%TD*%
D10*
%TO.C,R21*%
X123000000Y-42500000D03*
X125000000Y-42500000D03*
%TD*%
D18*
%TO.C,D11*%
X130000000Y-54975000D03*
X130000000Y-57025000D03*
%TD*%
D15*
%TO.C,0.1uF1*%
X147862500Y-58900000D03*
X149937500Y-58900000D03*
%TD*%
D16*
%TO.C,D13*%
X98900000Y-85525000D03*
X98900000Y-83475000D03*
%TD*%
D41*
%TO.C,SW3*%
X135170000Y-90600000D03*
X141900000Y-90600000D03*
%TD*%
D10*
%TO.C,R35*%
X119500000Y-81000000D03*
X121500000Y-81000000D03*
%TD*%
D21*
%TO.C,R9*%
X140300000Y-65000000D03*
X138300000Y-65000000D03*
%TD*%
D12*
%TO.C,R43*%
X141600000Y-46412500D03*
X141600000Y-44587500D03*
%TD*%
D23*
%TO.C,0.1uF2*%
X142000000Y-74937500D03*
X142000000Y-72862500D03*
%TD*%
D16*
%TO.C,D16*%
X114700000Y-85525000D03*
X114700000Y-83475000D03*
%TD*%
D12*
%TO.C,R64*%
X180800000Y-46412500D03*
X180800000Y-44587500D03*
%TD*%
D10*
%TO.C,R27*%
X99417500Y-81000000D03*
X101417500Y-81000000D03*
%TD*%
D12*
%TO.C,R59*%
X174300000Y-46412500D03*
X174300000Y-44587500D03*
%TD*%
D32*
%TO.C,Q3*%
X112800000Y-83700000D03*
X110900000Y-83700000D03*
X111850000Y-85575000D03*
%TD*%
M02*
